<?xml version="1.0" encoding="utf-8"?>
<!-- Generator: Adobe Illustrator 25.0.0, SVG Export Plug-In . SVG Version: 6.00 Build 0)  -->
<svg version="1.1" id="katman_1" xmlns="http://www.w3.org/2000/svg" xmlns:xlink="http://www.w3.org/1999/xlink" x="0px" y="0px"
	 viewBox="0 0 560 400" style="enable-background:new 0 0 560 400;" xml:space="preserve">
<style type="text/css">
	.st0{fill:#0091BD;}
</style>
<path class="st0" d="M163.1,138.5h28.6v122.6h-28.6v-12.8c-12.6,14.6-27.9,16.6-36.7,16.6c-37.8,0-59.4-31.5-59.4-65.2
	c0-40,27.4-64.5,59.8-64.5c9,0,24.8,2.3,36.4,17.5V138.5z M96.3,200.5c0,21.1,13.3,39.1,34,39.1c18,0,34.7-13.1,34.7-38.7
	c0-26.8-16.6-39.6-34.7-39.6C109.7,161,96.3,178.7,96.3,200.5z M225.8,138.5h28.6v11c3.2-3.8,7.9-7.9,11.9-10.3
	c5.6-3.2,11-4.1,17.5-4.1c7,0,14.6,1.1,22.5,5.8l-11.7,25.9c-6.5-4.1-11.7-4.3-14.6-4.3c-6.1,0-12.2,0.9-17.8,6.7
	c-7.9,8.5-7.9,20.2-7.9,28.3v63.7h-28.6L225.8,138.5z M324.7,138.5h28.6v11.3c9.5-11.7,20.9-14.6,30.2-14.6c12.8,0,24.8,6.1,31.7,18
	c10.3-14.6,25.6-18,36.4-18c14.9,0,27.9,7,34.9,19.3c2.3,4.1,6.5,13.1,6.5,31v75.8h-28.6V194c0-13.7-1.4-19.3-2.7-21.8
	c-1.8-4.7-6.1-10.8-16.4-10.8c-7,0-13.1,3.8-16.9,9c-5,7-5.6,17.5-5.6,27.9v63.2h-28.6V194c0-13.7-1.4-19.3-2.7-21.8
	c-1.8-4.7-6.1-10.8-16.4-10.8c-7,0-13.1,3.8-16.9,9c-5,7-5.6,17.5-5.6,27.9v63.2h-27.9V138.5z"/>
</svg>
